Run_40001
nRows=4
nColumns=164

# SIMM Motion File Header:
name Run_40001
datacolumns 164
datarows 4
otherdata 1
range 0.00833300 0.03333300
endheader
time	pelvis_tilt	pelvis_list	pelvis_rotation	pelvis_tx	pelvis_ty	pelvis_tz	hip_flexion_r	hip_adduction_r	hip_rotation_r	knee_angle_r	ankle_angle_r	hip_flexion_l	hip_adduction_l	hip_rotation_l	knee_angle_l	ankle_angle_l	lumbar_extension	lumbar_bending	lumbar_rotation	arm_flex_r	arm_add_r	arm_rot_r	elbow_flex_r	pro_sup_r	arm_flex_l	arm_add_l	arm_rot_l	elbow_flex_l	pro_sup_l	subtalar_angle_r	mtp_angle_r	subtalar_angle_l	mtp_angle_l	wrist_flex_r	wrist_dev_r	wrist_flex_l	wrist_dev_l	LASI_tx	LASI_ty	LASI_tz	RASI_tx	RASI_ty	RASI_tz	LPSI_tx	LPSI_ty	LPSI_tz	RPSI_tx	RPSI_ty	RPSI_tz	RTH1_tx	RTH1_ty	RTH1_tz	RTH2_tx	RTH2_ty	RTH2_tz	RTH3_tx	RTH3_ty	RTH3_tz	LTH1_tx	LTH1_ty	LTH1_tz	LTH2_tx	LTH2_ty	LTH2_tz	LTH3_tx	LTH3_ty	LTH3_tz	RTB1_tx	RTB1_ty	RTB1_tz	RTB2_tx	RTB2_ty	RTB2_tz	RTB3_tx	RTB3_ty	RTB3_tz	LTB1_tx	LTB1_ty	LTB1_tz	LTB2_tx	LTB2_ty	LTB2_tz	LTB3_tx	LTB3_ty	LTB3_tz	RCAL_tx	RCAL_ty	RCAL_tz	RTOE_tx	RTOE_ty	RTOE_tz	RMT5_tx	RMT5_ty	RMT5_tz	LCAL_tx	LCAL_ty	LCAL_tz	LTOE_tx	LTOE_ty	LTOE_tz	LMT5_tx	LMT5_ty	LMT5_tz	LACR_tx	LACR_ty	LACR_tz	RACR_tx	RACR_ty	RACR_tz	CLAV_tx	CLAV_ty	CLAV_tz	C7_tx	C7_ty	C7_tz	RUA1_tx	RUA1_ty	RUA1_tz	RUA2_tx	RUA2_ty	RUA2_tz	RUA3_tx	RUA3_ty	RUA3_tz	RLEL_tx	RLEL_ty	RLEL_tz	RMEL_tx	RMEL_ty	RMEL_tz	LUA1_tx	LUA1_ty	LUA1_tz	LUA2_tx	LUA2_ty	LUA2_tz	LUA3_tx	LUA3_ty	LUA3_tz	LLEL_tx	LLEL_ty	LLEL_tz	LMEL_tx	LMEL_ty	LMEL_tz	RFAsuperior_tx	RFAsuperior_ty	RFAsuperior_tz	RFAradius_tx	RFAradius_ty	RFAradius_tz	RFAulna_tx	RFAulna_ty	RFAulna_tz	LFAsuperior_tx	LFAsuperior_ty	LFAsuperior_tz	LFAradius_tx	LFAradius_ty	LFAradius_tz	LFAulna_tx	LFAulna_ty	LFAulna_tz
      0.00833300	     -0.76017784	     -3.41580975	      5.50538613	      0.74597212	      1.01468528	     -0.38835184	     37.86615747	     -0.07318893	     -7.85240727	    -53.76026305	      1.78433024	    -23.31193299	     -4.82707866	     -2.27520422	    -15.75884567	    -24.47803491	    -11.94778333	      7.45791233	    -17.15868768	    -46.70843984	    -31.28809937	    -13.20332669	    103.10709107	     64.27348407	     -0.52369068	    -40.81109099	      7.55046035	    120.60832218	     89.44100523	      0.00000000	      0.00000000	      0.00000000	      0.00000000	      0.00000000	      0.00000000	      0.00000000	      0.00000000	      0.75258448	      1.01851425	     -0.50773282	      0.74751779	      1.05198605	     -0.26803626	      0.58784452	      1.06380267	     -0.42611250	      0.58759975	      1.06555174	     -0.33864470	      0.77933158	      0.88939189	     -0.21528207	      0.89461814	      0.82078936	     -0.23126939	      0.88735748	      0.67527821	     -0.23824049	      0.66125598	      0.88434514	     -0.55208829	      0.66227976	      0.76113024	     -0.53774467	      0.53508081	      0.66744632	     -0.52804229	      0.95580161	      0.48346675	     -0.28921324	      0.89447872	      0.43105659	     -0.24056810	      0.88156038	      0.31771661	     -0.30947451	      0.45404015	      0.43114583	     -0.46936931	      0.35027777	      0.38058965	     -0.51827246	      0.31790448	      0.29595430	     -0.45024667	      0.73591485	      0.21477626	     -0.32977881	      0.94655251	      0.15231687	     -0.31582149	      0.90093908	      0.13953858	     -0.22781486	      0.17011731	      0.29712692	     -0.44568762	      0.27538520	      0.10810302	     -0.43030011	      0.22030002	      0.10311877	     -0.50656874	      0.78511374	      1.48291723	     -0.54381607	      0.68581632	      1.49586242	     -0.19282523	      0.81740294	      1.44970378	     -0.31159475	      0.70238601	      1.53606923	     -0.38046941	      0.61557767	      1.43157536	     -0.12752803	      0.60267568	      1.36214442	     -0.11420268	      0.50260937	      1.39298240	     -0.11404050	      0.47764349	      1.31599678	     -0.05895966	      0.44670437	      1.30205698	     -0.14024224	      0.77772868	      1.42449332	     -0.61298411	      0.71976016	      1.36058721	     -0.63812201	      0.79072261	      1.34375263	     -0.66997328	      0.79382726	      1.25381757	     -0.73690219	      0.73370579	      1.19483627	     -0.70267143	      0.53250796	      1.25417352	     -0.04322142	      0.64664304	      1.13061248	     -0.06441479	      0.58659390	      1.09627912	     -0.06478036	      0.85157264	      1.25867581	     -0.69336177	      0.93913208	      1.23739900	     -0.54025654	      0.95674826	      1.18545628	     -0.57773238
      0.01666700	     -0.96625879	     -2.77793686	      5.19017427	      0.74775837	      1.01659461	     -0.38764587	     36.52803564	     -0.20774144	     -7.29559729	    -46.70224803	      1.95958985	    -22.83072795	     -4.12005938	     -2.03275588	    -19.85869214	    -25.40040074	    -11.67027408	      6.85189353	    -17.50357472	    -46.99103281	    -31.69600398	    -13.63686348	    103.34305583	     64.16182715	     -2.54806005	    -41.17472098	      7.65134949	    121.67466749	     90.26469570	      0.00000000	      0.00000000	      0.00000000	      0.00000000	      0.00000000	      0.00000000	      0.00000000	      0.00000000	      0.75409469	      1.02221343	     -0.50508769	      0.74792792	      1.05372253	     -0.26693444	      0.58977508	      1.06769432	     -0.42670655	      0.58959226	      1.06989600	     -0.33864758	      0.77805748	      0.88780137	     -0.21450784	      0.89429593	      0.81729421	     -0.23206402	      0.88361134	      0.67194170	     -0.23812396	      0.66325978	      0.88689891	     -0.55151948	      0.66544390	      0.76336535	     -0.53993556	      0.53921995	      0.66793517	     -0.52974115	      0.96044541	      0.47925209	     -0.28861983	      0.90345337	      0.42188005	     -0.24029266	      0.90223682	      0.30801677	     -0.30899664	      0.44943260	      0.43424624	     -0.47060499	      0.34258678	      0.39037984	     -0.51825117	      0.30409301	      0.30956815	     -0.44958157	      0.76740157	      0.19085350	     -0.32955567	      0.98293186	      0.15250319	     -0.31737438	      0.94010866	      0.13321991	     -0.22964250	      0.15872417	      0.32175996	     -0.44690537	      0.24770156	      0.12560326	     -0.42561679	      0.19416727	      0.12261443	     -0.50205097	      0.78700752	      1.48574641	     -0.54171849	      0.68534213	      1.49718109	     -0.19225966	      0.81717340	      1.45152479	     -0.30987354	      0.70352208	      1.53829800	     -0.37918546	      0.61505630	      1.43421433	     -0.12654720	      0.60183642	      1.36500653	     -0.11269116	      0.50190491	      1.39617381	     -0.11290602	      0.47606413	      1.31949264	     -0.05794543	      0.44604159	      1.30526337	     -0.13926220	      0.77969325	      1.42857185	     -0.61137299	      0.72078728	      1.36737080	     -0.63870703	      0.79168793	      1.34854378	     -0.67009958	      0.79300007	      1.25804950	     -0.73662312	      0.73010559	      1.20054858	     -0.70367328	      0.53072330	      1.25799658	     -0.04108590	      0.64596326	      1.13485016	     -0.06085817	      0.58608034	      1.10024428	     -0.06136447	      0.85003142	      1.26165771	     -0.69233859	      0.93329382	      1.23830293	     -0.53685357	      0.95125901	      1.18659494	     -0.57467478
      0.02500000	     -1.10527669	     -1.94620850	      4.93704978	      0.74951579	      1.01789824	     -0.38696885	     34.99544751	     -0.55329138	     -6.67216482	    -39.79669614	      1.64197935	    -22.32972477	     -3.16791794	     -1.36444683	    -24.15487069	    -25.82039939	    -11.48467997	      6.03523142	    -17.83527298	    -47.24385751	    -32.03437366	    -14.10225951	    103.61743441	     63.80808624	     -4.58181392	    -41.52852226	      7.76204313	    122.67847000	     90.84944490	      0.00000000	      0.00000000	      0.00000000	      0.00000000	      0.00000000	      0.00000000	      0.00000000	      0.00000000	      0.75546561	      1.02562359	     -0.50282175	      0.74827879	      1.05477395	     -0.26560389	      0.59150656	      1.07114442	     -0.42694558	      0.59131763	      1.07356621	     -0.33843025	      0.77672325	      0.88570165	     -0.21356559	      0.89319371	      0.81291995	     -0.23279186	      0.87889843	      0.66731614	     -0.23807206	      0.66564014	      0.88886944	     -0.55091051	      0.66937192	      0.76504517	     -0.54127211	      0.54448381	      0.66758607	     -0.53130551	      0.96409135	      0.47483807	     -0.28824820	      0.91154367	      0.41318073	     -0.24007633	      0.92122874	      0.29924639	     -0.30877615	      0.44570102	      0.43752455	     -0.47099650	      0.33618541	      0.40049120	     -0.51797881	      0.29125968	      0.32433956	     -0.44859186	      0.79735288	      0.16935143	     -0.32959726	      1.01627073	      0.15362061	     -0.31868700	      0.97617192	      0.12836454	     -0.23126560	      0.14771857	      0.34696398	     -0.44854557	      0.22195481	      0.14536685	     -0.42043542	      0.17012236	      0.14346292	     -0.49771302	      0.78864011	      1.48801204	     -0.53973205	      0.68519794	      1.49798683	     -0.19144619	      0.81705060	      1.45287590	     -0.30816559	      0.70464542	      1.54003285	     -0.37782962	      0.61494416	      1.43624853	     -0.12533935	      0.60145159	      1.36717079	     -0.11101506	      0.50160449	      1.39868740	     -0.11159918	      0.47509561	      1.32226688	     -0.05665601	      0.44586881	      1.30768731	     -0.13799455	      0.78125459	      1.43201782	     -0.60978976	      0.72154731	      1.37344119	     -0.63907729	      0.79208451	      1.35263051	     -0.66997677	      0.79148338	      1.26161928	     -0.73644726	      0.72592201	      1.20573742	     -0.70449085	      0.52958915	      1.26113586	     -0.03870452	      0.64602308	      1.13846241	     -0.05692266	      0.58624635	      1.10357476	     -0.05779272	      0.84800852	      1.26385803	     -0.69151118	      0.92729938	      1.23846264	     -0.53391382	      0.94526368	      1.18682278	     -0.57196697
      0.03333300	     -1.18004348	     -0.87428461	      4.68225559	      0.75108083	      1.01848269	     -0.38625844	     33.44604376	     -1.16624613	     -6.04623992	    -33.56215856	      1.14566545	    -21.65735556	     -1.83518175	     -0.22835432	    -28.97650530	    -25.28684611	    -11.43017113	      4.94302816	    -18.07684306	    -47.32817712	    -32.30539459	    -14.54062764	    103.86336165	     63.14377654	     -6.66017607	    -41.81051248	      7.80212000	    123.54818506	     91.15455213	      0.00000000	      0.00000000	      0.00000000	      0.00000000	      0.00000000	      0.00000000	      0.00000000	      0.00000000	      0.75667362	      1.02849957	     -0.50118511	      0.74850887	      1.05473897	     -0.26399310	      0.59295744	      1.07381424	     -0.42664133	      0.59263546	      1.07606243	     -0.33792012	      0.77530971	      0.88281389	     -0.21228529	      0.89075574	      0.80710392	     -0.23344427	      0.87272977	      0.66088039	     -0.23808050	      0.66860588	      0.88991219	     -0.55027306	      0.67436385	      0.76581037	     -0.54132074	      0.55136202	      0.66595818	     -0.53259182	      0.96612432	      0.47022898	     -0.28832674	      0.91826319	      0.40534301	     -0.23997999	      0.93733235	      0.29202594	     -0.30899733	      0.44344851	      0.44109552	     -0.47021463	      0.33190434	      0.41109131	     -0.51739096	      0.28025546	      0.34079794	     -0.44725070	      0.82434101	      0.15185731	     -0.32995491	      1.04445551	      0.15578864	     -0.31972033	      1.00698250	      0.12556986	     -0.23261979	      0.13793108	      0.37310207	     -0.45073245	      0.19932383	      0.16840753	     -0.41482603	      0.14929318	      0.16651676	     -0.49374188	      0.78985191	      1.48935854	     -0.53791229	      0.68554108	      1.49795791	     -0.19025672	      0.81708761	      1.45343164	     -0.30649480	      0.70570603	      1.54096846	     -0.37634886	      0.61544879	      1.43728365	     -0.12375941	      0.60178638	      1.36819070	     -0.10907181	      0.50194209	      1.40007160	     -0.11001270	      0.47510672	      1.32384692	     -0.05490955	      0.44644121	      1.30880254	     -0.13622867	      0.78215160	      1.43444208	     -0.60828624	      0.72180829	      1.37829021	     -0.63905200	      0.79153575	      1.35551533	     -0.66941151	      0.78883118	      1.26410527	     -0.73640195	      0.72078979	      1.21005634	     -0.70496282	      0.52953861	      1.26315424	     -0.03594831	      0.64727380	      1.14103609	     -0.05244914	      0.58754362	      1.10585744	     -0.05395306	      0.84518333	      1.26480735	     -0.69107814	      0.92105772	      1.23738931	     -0.53174558	      0.93849344	      1.18558166	     -0.56989809
